<svg xmlns="http://www.w3.org/2000/svg" xmlns:xlink="http://www.w3.org/1999/xlink" version="1.1" id="Layer_1" x="0px" y="0px" width="100px" height="100px" viewBox="0 0 100 100" enable-background="new 0 0 100 100" xml:space="preserve">
<g>
	<path d="M81.688,33.514C78.883,31.479,80.885,29,80.885,29h-0.109c3.213,0,5.357-4.713,5.357-8.779   c0-6.257-5.078-10.911-11.342-10.911c-6.262,0-11.34,5.29-11.34,11.553c0,4.136,2.219,7.871,5.541,9.847   c0.377,0.383,1.473,1.785-0.635,3.452c-4.633,1.51-8.549,4.643-11.104,8.676c7.99,5.844,13.414,14.738,14.809,24.687   c0.896,0.033,1.801,0.059,2.729,0.059c11.453,0,20.74-2.633,20.74-14.09C95.531,44.454,89.752,36.35,81.688,33.514z"/>
</g>
<path d="M45.356,44.812c-3.994-2.893-1.141-5.193-1.141-5.193l-0.161-0.014c4.582-2.847,7.629-7.925,7.629-13.718  c0-8.913-7.225-16.141-16.14-16.141c-8.926,0-16.152,7.228-16.152,16.141c0,5.896,3.164,11.051,7.888,13.881  c0.54,0.521,2.097,2.463-0.905,4.825C14.555,48.454,6.007,59.557,6.007,72.668c0,16.305,13.224,19.447,29.536,19.447  c16.302,0,29.525-3.143,29.525-19.447C65.068,59.807,56.832,48.859,45.356,44.812z"/>
</svg>